<?xml version="1.0" encoding="utf-8"?>
<!-- Generator: Adobe Illustrator 22.0.1, SVG Export Plug-In . SVG Version: 6.00 Build 0)  -->
<svg version="1.1" id="Capa_1" focusable="false" xmlns="http://www.w3.org/2000/svg" xmlns:xlink="http://www.w3.org/1999/xlink"
	 x="0px" y="0px" viewBox="0 0 57.3 57.3" style="enable-background:new 0 0 57.3 57.3;" xml:space="preserve">
<style type="text/css">
	.st0{opacity:0.7;stroke:#000000;stroke-miterlimit:10;}
	.st1{fill:#FFFFFF;}
</style>
<g>
	<rect class="st0" width="57.3" height="57.3"/>
	<g>
		<path class="st1" d="M50.2,44.8l-8.6-8.6c-0.4-0.4-0.9-0.6-1.5-0.6h-1.4c2.4-3.1,3.8-6.9,3.8-11.1c0-9.9-8.1-18-18-18
			s-18,8.1-18,18s8.1,18,18,18c4.1,0,8.1-1.4,11.1-3.8v1.4c0,0.5,0.2,1.1,0.6,1.5l8.6,8.6c0.8,0.8,2.1,0.8,3,0l2.4-2.4
			C51,46.9,51,45.5,50.2,44.8L50.2,44.8z M24.5,36.9c-6.9,0-12.5-5.5-12.5-12.4s5.6-12.4,12.4-12.4s12.4,5.6,12.4,12.4
			C37,31.3,31.4,36.9,24.5,36.9z M24.5,16.1c-3.5,0-6.4,2.9-6.4,6.4c0,2.8,4.1,8.1,5.8,9.9c0.3,0.3,0.8,0.4,1.1,0.1l0.1-0.1
			c1.6-1.9,5.8-7.1,5.8-9.9C30.9,18.9,28,16.1,24.5,16.1L24.5,16.1z M24.5,24.4c-1.2,0-2.1-0.9-2.1-2.1s0.9-2.1,2.1-2.1
			s2.1,0.9,2.1,2.1S25.6,24.4,24.5,24.4z"/>
	</g>
</g>
</svg>
